<?xml version="1.0" standalone="no"?>
<!DOCTYPE svg PUBLIC "-//W3C//DTD SVG 1.1//EN" "http://www.w3.org/Graphics/SVG/1.1/DTD/svg11.dtd" >
<svg xmlns="http://www.w3.org/2000/svg">
<metadata></metadata>
<defs>
<font id="champagne__limousines_thickBd" horiz-adv-x="1170" >
<font-face units-per-em="2048" ascent="1638" descent="-410" />
<missing-glyph horiz-adv-x="508" />
<glyph horiz-adv-x="0" />
<glyph unicode="&#xd;" horiz-adv-x="508" />
<glyph unicode=" "  horiz-adv-x="508" />
<glyph unicode="&#x09;" horiz-adv-x="508" />
<glyph unicode="&#xa0;" horiz-adv-x="508" />
<glyph unicode="!" horiz-adv-x="410" d="M55 135q0 58 44 101t107 43q62 0 105.5 -43t43.5 -101q0 -60 -43.5 -103t-105.5 -43q-63 0 -107 43t-44 103zM89 312v1088h229v-1088h-229z" />
<glyph unicode="&#x22;" horiz-adv-x="719" d="M55 780v618h229v-618h-229zM435 780v618h229v-618h-229z" />
<glyph unicode="#" horiz-adv-x="1126" d="M8 409l27 220h252l11 89h-252l28 220h251l51 408h231l-51 -408h79l50 408h231l-50 -408h252l-28 -220h-251l-12 -89h253l-27 -220h-254l-49 -409h-231l50 409h-79l-51 -409h-230l51 409h-252zM518 629h78l12 89h-79z" />
<glyph unicode="$" horiz-adv-x="863" d="M55 486l207 75q16 -153 58 -195q48 -47 114 -47t114.5 48t48.5 118q0 69 -48 117q-53 53 -125 82q-123 40 -202 119.5t-79 198.5q0 116 85 201q42 42 93 63v137h229v-139q49 -21 90 -62q48 -45 88 -170l-194 -75q-33 89 -47 103q-23 22 -53 22q-31 0 -54 -23t-23 -57 q0 -35 23 -58q33 -33 91 -60q134 -43 229 -138q108 -109 108 -261q0 -153 -109 -262q-66 -67 -149 -93v-135h-229v134q-86 26 -153 95q-88 87 -113 262z" />
<glyph unicode="%" horiz-adv-x="1299" d="M55 843q0 105 75.5 181t184.5 76q110 0 185 -76t75 -181q0 -104 -75 -179.5t-185 -75.5q-109 0 -184.5 75.5t-75.5 179.5zM154 99l805 1149l185 -129l-804 -1149zM283 843q0 -17 10 -27t22 -10t22.5 10.5t10.5 26.5q0 17 -10.5 27.5t-22.5 10.5t-22 -10t-10 -28zM723 375 q0 104 75.5 179.5t185.5 75.5q109 0 184.5 -75.5t75.5 -179.5q0 -105 -75.5 -180.5t-184.5 -75.5q-110 0 -185.5 75.5t-75.5 180.5zM951 375q0 -18 10 -28t23 -10q11 0 22 11t11 27q0 17 -11 27.5t-22 10.5q-13 0 -23 -10.5t-10 -27.5z" />
<glyph unicode="&#x26;" horiz-adv-x="1036" d="M55 431q0 183 129 313q56 55 99 82l-61 98q-51 88 -51 173q0 111 88 217q102 101 245 101q145 0 245 -100t100 -238q0 -140 -96 -236q-72 -73 -148 -106l134 -213l65 -100l153 -2q-16 -112 -45 -173l70 -133l-158 -123l-58 76q-93 -82 -262 -82q-188 0 -318.5 131.5 t-130.5 314.5zM282 431q0 -95 66 -160.5t156 -65.5q91 0 139 49l-241 385q-16 -9 -55 -49q-65 -65 -65 -159zM398 1093q0 -27 19 -61l76 -119q48 35 92 79q34 34 34 85t-34.5 85t-80.5 34t-79 -33q-14 -13 -24 -50q-3 -10 -3 -20z" />
<glyph unicode="'" horiz-adv-x="339" d="M55 780v618h229v-618h-229z" />
<glyph unicode="(" horiz-adv-x="851" d="M55 685q0 398 204 634q65 75 161 143h377q-289 -175 -371 -285q-119 -161 -119 -493q0 -333 119 -494q82 -110 371 -284h-377q-96 67 -161 143q-204 235 -204 636z" />
<glyph unicode=")" horiz-adv-x="851" d="M55 -94q290 174 371 284q119 161 119 494q0 332 -119 493q-81 110 -371 285h377q97 -68 161 -143q204 -236 204 -634q0 -401 -204 -636q-64 -76 -161 -143h-377z" />
<glyph unicode="*" horiz-adv-x="791" d="M75 1001l125 88l-125 86l128 185l78 -55v93h228v-92l78 54l128 -185l-125 -86l124 -88l-128 -184l-77 54v-91h-228v92l-78 -55z" />
<glyph unicode="+" horiz-adv-x="1125" d="M85 427v220h363v363h229v-363h363v-220h-363v-363h-229v363h-363z" />
<glyph unicode="," horiz-adv-x="534" d="M0 -172l120 452h316l-217 -452h-219z" />
<glyph unicode="-" horiz-adv-x="697" d="M48 427v220h601v-220h-601z" />
<glyph unicode="." horiz-adv-x="410" d="M55 135q0 58 44 101t107 43q62 0 105.5 -43t43.5 -101q0 -60 -43.5 -103t-105.5 -43q-63 0 -107 43t-44 103z" />
<glyph unicode="/" horiz-adv-x="783" d="M-52 0l634 1400h253l-634 -1400h-253z" />
<glyph unicode="0" horiz-adv-x="1117" d="M50 689q0 320 145 515.5t365 195.5q219 0 363 -196t144 -515t-144 -515t-363 -196q-220 0 -365 196t-145 515zM283 689q0 -243 86 -364.5t190 -121.5t189 121.5t85 364.5t-85 364.5t-189 121.5t-190 -121.5t-86 -364.5z" />
<glyph unicode="1" horiz-adv-x="1149" d="M185 0v220h277v822l-53 -34l-182 133l465 336v-1257h272v-220h-779z" />
<glyph unicode="2" horiz-adv-x="1207" d="M170 0q564 861 597 918.5t33 100.5q0 22 -5 45q-16 68 -71 102q-39 23 -80 23q-19 0 -38 -3q-62 -15 -97 -72q-21 -32 -36 -137l-227 32q14 147 62 220q87 138 244 174q48 11 93 11q111 0 208 -62q136 -85 172 -240q12 -54 12 -103q0 -92 -47 -177t-395 -612h442v-220 h-867z" />
<glyph unicode="3" horiz-adv-x="1141" d="M116 422l227 82q20 -177 76 -233q64 -63 152 -63q92 0 156.5 64t64.5 159q0 96 -67 168.5t-204 98.5l-129 4v217q136 1 167 13t69 53t38 92q0 50 -33.5 83.5t-78.5 33.5q-46 0 -78 -32q-20 -20 -57 -121l-211 84q43 137 99 191q102 101 247 101q146 0 246 -100.5 t100 -239.5t-33.5 -175.5t-72.5 -52.5q16 -5 104 -99q126 -137 126 -319q0 -184 -132 -316t-321 -132q-188 0 -321 134q-103 104 -134 305z" />
<glyph unicode="4" horiz-adv-x="1192" d="M136 322l802 1342v-1122h119v-220h-119v-322h-230v322h-572zM529 542h179v300z" />
<glyph unicode="5" horiz-adv-x="1147" d="M85 245l160 174q109 -160 207 -190q45 -14 86 -14q67 0 132 35q107 57 143 174q15 47 15 91q0 69 -37 136q-58 108 -175 150q-50 17 -112 17q-86 0 -240 -48l-128 112l155 430v88h550v-220h-354l-49 -171q84 18 149 18q60 0 104 -15q206 -70 307 -259q62 -117 62 -239 q0 -77 -23 -153q-63 -206 -253 -308q-118 -62 -243 -62q-79 0 -160 25q-167 51 -296 229z" />
<glyph unicode="6" horiz-adv-x="1138" d="M142 404v16q9 205 121 433.5t255 437.5q25 37 68 109h275q-92 -157 -126 -205q-157 -225 -231 -381l61 14q183 0 306.5 -124.5t123.5 -299.5q0 -172 -123.5 -296.5t-302.5 -124.5q-177 0 -302 124t-125 297zM375 404q0 -82 57.5 -138.5t136.5 -56.5q78 0 135.5 56.5 t57.5 138.5q0 85 -57.5 142t-135.5 57q-79 0 -136.5 -57t-57.5 -142z" />
<glyph unicode="7" horiz-adv-x="1133" d="M118 1180v220h897q-6 -301 -171.5 -537.5t-263.5 -442.5t-109 -420h-232q12 280 123.5 508.5t249 430.5t145.5 241h-639z" />
<glyph unicode="8" horiz-adv-x="1124" d="M77 431q0 182 127 319l73 75q-76 115 -76 252q0 139 100 239.5t246 100.5h29q145 0 246 -100.5t101 -239.5q0 -137 -78 -252l73 -75q128 -137 128 -319q0 -184 -131.5 -316t-321.5 -132q-18 0 -31 1q-13 -1 -33 -1q-188 0 -320 132t-132 316zM309 431q0 -95 65 -159 t155 -64q13 0 30 1h6q15 -1 28 -1q90 0 154.5 64t64.5 159q0 96 -64 168q-66 71 -186 95q-121 -24 -189 -97q-64 -70 -64 -166zM434 1077q0 -51 38.5 -92t66.5 -52q15 -5 23 -7l21 7q29 11 67.5 52t38.5 92q0 50 -34 83.5t-79 33.5q-1 0 -8 -1h-14q-6 1 -7 1 q-45 0 -79 -33.5t-34 -83.5z" />
<glyph unicode="9" horiz-adv-x="1138" d="M142 996q0 173 124 297.5t302 124.5t302.5 -124.5t124.5 -297.5v-16q-8 -204 -120 -432.5t-256 -438.5q-24 -36 -68 -109h-274q91 158 125 205q157 226 231 381l-60 -14q-183 0 -307 124.5t-124 299.5zM375 996q0 -84 57.5 -141.5t135.5 -57.5q79 0 136.5 57.5 t57.5 141.5q0 83 -57.5 139.5t-136.5 56.5q-78 0 -135.5 -56.5t-57.5 -139.5z" />
<glyph unicode=":" horiz-adv-x="410" d="M55 135q0 58 44 101t107 43q62 0 105.5 -43t43.5 -101q0 -60 -43.5 -103t-105.5 -43q-63 0 -107 43t-44 103zM55 680q0 59 44 102t107 43q62 0 105.5 -43t43.5 -102q0 -60 -43.5 -102.5t-105.5 -42.5q-63 0 -107 42.5t-44 102.5z" />
<glyph unicode=";" horiz-adv-x="491" d="M0 -172l120 452h316l-217 -452h-219zM51 680q0 59 43.5 102t106.5 43q62 0 105.5 -43t43.5 -102q0 -60 -43.5 -102.5t-105.5 -42.5t-106 42.5t-44 102.5z" />
<glyph unicode="&#x3c;" horiz-adv-x="1222" d="M89 625l1045 499v-250l-539 -249l539 -248v-250z" />
<glyph unicode="=" horiz-adv-x="1125" d="M85 553v220h955v-220h-955zM89 302v221h947v-221h-947z" />
<glyph unicode="&#x3e;" horiz-adv-x="1222" d="M89 127v250l538 248l-538 249v250l1045 -499z" />
<glyph unicode="?" horiz-adv-x="893" d="M50 1024q0 102 74 208q92 134 256 163q36 6 73 6q120 0 224 -71q132 -93 160 -254q6 -35 6 -70q0 -114 -69 -218q-57 -79 -190 -184q-72 -65 -91 -94q-21 -28 -21 -61q0 -10 6 -47l-227 -41q-10 60 -10 90q0 99 60 182q44 65 164 162q90 81 116 118q32 45 32 95 q0 16 -3 32q-12 69 -69 109q-45 30 -92 30q-14 0 -29 -2q-63 -12 -102 -68q-34 -47 -34 -92q0 -10 21 -116l-238 16q-17 81 -17 107zM242 135q0 58 44 101t107 43q62 0 105.5 -43t43.5 -101q0 -60 -43.5 -103t-105.5 -43q-63 0 -107 43t-44 103z" />
<glyph unicode="@" horiz-adv-x="1326" d="M55 530q0 251 179 430t430 179q252 0 429.5 -179t177.5 -430q0 -118 -86.5 -252.5t-203.5 -134.5q-15 0 -30 3q-105 22 -114 74q-30 -32 -173 -32q-142 0 -243.5 101t-101.5 242q0 143 101.5 244t243.5 101q143 0 173 -32v21h122q-124 112 -295 112q-185 0 -315.5 -131.5 t-130.5 -315.5t130.5 -314.5t315.5 -130.5q126 0 212 53l115 -121q-161 -94 -327 -94q-251 0 -430 178t-179 429zM486 531q0 -74 52.5 -126.5t127.5 -52.5q74 0 127 52q36 37 46 79v97q-10 43 -46 79q-53 53 -127 53q-75 0 -127.5 -52.5t-52.5 -128.5zM999 304q14 7 60 73 q52 73 52 153q0 170 -112 295v-521z" />
<glyph unicode="A" horiz-adv-x="1220" d="M101 0l511 1401l507 -1401h-242l-106 295h-320l-107 -295h-243zM531 514h159l-80 218z" />
<glyph unicode="B" horiz-adv-x="1091" d="M112 0v1400h453q141 0 238.5 -97.5t97.5 -233.5t-50 -185q188 -202 188 -401t-140 -340q-120 -119 -296 -143h-491zM341 220h211q104 0 179.5 76.5t75.5 186.5t-76 186.5t-179 76.5h-211v-526zM341 966h236q43 4 60 22q33 33 33 81t-32 80t-74 32h-223v-215z" />
<glyph unicode="C" horiz-adv-x="1402" d="M74 700q0 294 210 504.5t510 210.5q279 0 546 -243l-170 -150q-192 171 -376 171q-201 0 -345.5 -144t-144.5 -349q0 -206 144.5 -349.5t345.5 -143.5q184 0 376 170l170 -150q-267 -242 -546 -242q-300 0 -510 209.5t-210 505.5z" />
<glyph unicode="D" horiz-adv-x="1231" d="M112 0v1400h311q344 -2 537 -195q209 -211 209 -505q0 -296 -210 -505q-192 -193 -536 -195h-311zM341 222h81q237 0 368 128q145 144 145 350q0 205 -145 351q-131 126 -368 126h-81v-955z" />
<glyph unicode="E" horiz-adv-x="1008" d="M112 0v1400h784v-220h-555v-369h555v-222h-555v-369h555v-220h-784z" />
<glyph unicode="F" horiz-adv-x="871" d="M112 0v1400h707v-220h-478v-369h478v-222h-478v-589h-229z" />
<glyph unicode="G" horiz-adv-x="1414" d="M74 700q0 294 210 504.5t510 210.5q279 0 546 -243l-170 -150q-192 171 -376 171q-201 0 -345.5 -144t-144.5 -349q0 -206 144.5 -349.5t345.5 -143.5q172 0 276 83v422h229v-512q-224 -215 -505 -215q-300 0 -510 209.5t-210 505.5z" />
<glyph unicode="H" horiz-adv-x="1129" d="M94 0v1400h229v-589h482v589h230v-1400h-230v589h-482v-589h-229z" />
<glyph unicode="I" horiz-adv-x="473" d="M122 0v1400h229v-1400h-229z" />
<glyph unicode="J" horiz-adv-x="436" d="M-61 -28q110 0 133 22q20 20 20 66v1340h230v-1349q0 -125 -87.5 -213t-295.5 -88v222z" />
<glyph unicode="K" horiz-adv-x="1123" d="M112 0v1400h229v-423l296 423h276l-376 -544l599 -856h-276l-463 662l-56 -79v-583h-229z" />
<glyph unicode="L" horiz-adv-x="871" d="M112 0v1400h229v-1180h478v-220h-707z" />
<glyph unicode="M" horiz-adv-x="1456" d="M94 0v1442l634 -1098l634 1100v-1444h-230v589l-341 -589h-128l-340 587v-587h-229z" />
<glyph unicode="N" horiz-adv-x="1213" d="M109 0v1400h136l629 -882v882h230v-1426h-121l-645 904v-878h-229z" />
<glyph unicode="O" horiz-adv-x="1566" d="M62 702q0 295 211 505.5t510 210.5q300 0 510.5 -210.5t210.5 -505.5q0 -296 -210.5 -506.5t-510.5 -210.5q-299 0 -510 210.5t-211 506.5zM292 702q0 -206 145 -350.5t346 -144.5q202 0 346.5 144.5t144.5 350.5q0 205 -144.5 349.5t-346.5 144.5q-201 0 -346 -144.5 t-145 -349.5z" />
<glyph unicode="P" horiz-adv-x="1028" d="M112 0v1400h413q176 -24 296 -143q141 -141 141 -339q0 -200 -142.5 -342.5t-344.5 -142.5h-134v-433h-229zM341 655h134q105 0 181 76t76 187q0 109 -76 185t-181 76h-134v-524z" />
<glyph unicode="Q" horiz-adv-x="1566" d="M62 702q0 295 211 505.5t510 210.5q300 0 510.5 -210.5t210.5 -505.5q0 -296 -210 -506q-149 -149 -343 -193q60 -22 129 -61l128 -75q23 -6 32 -6q7 0 7 3v1q25 8 36 34q7 17 7 123l234 -38q-8 -114 -28 -164q-49 -120 -170 -160q-33 -10 -69 -10q-105 0 -259 88 q-129 74 -173 74h-4q-15 -5 -26 -33q-8 -17 -8 -122l-232 38q5 115 25 165q36 86 109 130q-239 29 -416 206q-211 210 -211 506zM292 702q0 -206 145 -350.5t346 -144.5q202 0 346.5 144.5t144.5 350.5q0 205 -144.5 349.5t-346.5 144.5q-201 0 -346 -144.5t-145 -349.5z " />
<glyph unicode="R" horiz-adv-x="1068" d="M112 0v1400h413q176 -24 296 -143q141 -141 141 -339q0 -200 -143 -342q-97 -97 -122 -104l305 -472h-272l-301 468l-76 -25h-12v-443h-229zM341 655h134q105 0 181 76t76 187q0 109 -76 185t-181 76h-134v-524z" />
<glyph unicode="S" horiz-adv-x="1013" d="M55 420l222 80q19 -174 76 -230q65 -65 155 -65q91 0 157 65.5t66 160.5q0 94 -65 159q-69 69 -163 107q-150 50 -245 145t-95 235q0 138 100 238t245 100q143 0 245 -101q56 -54 100 -188l-209 -81q-36 98 -56 118q-34 33 -80 33t-80 -34t-34 -85t33 -85q45 -44 121 -79 q164 -53 280 -169q129 -130 129 -313t-130.5 -314.5t-318.5 -131.5t-319 134q-106 103 -134 301z" />
<glyph unicode="T" horiz-adv-x="926" d="M32 1180v220h862v-220h-317v-1180h-228v1180h-317z" />
<glyph unicode="U" horiz-adv-x="1199" d="M112 472v928h229v-928q0 -109 77 -185.5t182 -76.5t181.5 76.5t76.5 185.5v928h229v-978q-23 -172 -140 -290q-144 -143 -347 -143q-204 0 -346 142.5t-142 340.5z" />
<glyph unicode="V" horiz-adv-x="1220" d="M104 1400h242l264 -721l262 721h242l-504 -1390z" />
<glyph unicode="W" horiz-adv-x="1676" d="M86 1400h237l180 -681l274 681h121l274 -678l181 678h237l-373 -1395l-378 935l-379 -937z" />
<glyph unicode="X" horiz-adv-x="1172" d="M15 0l439 762l-368 638h261l238 -412l238 412h261l-369 -638l441 -762h-261l-310 535l-310 -535h-260z" />
<glyph unicode="Y" horiz-adv-x="1262" d="M32 1400h261l338 -584l338 584h261l-484 -838v-562h-230v562z" />
<glyph unicode="Z" horiz-adv-x="1238" d="M84 0l681 1180h-627v220h1015l-681 -1180h627v-220h-1015z" />
<glyph unicode="[" horiz-adv-x="511" d="M55 -106v1623h401v-220h-172v-1182h172v-221h-401z" />
<glyph unicode="\" horiz-adv-x="783" d="M-52 1400h254l633 -1400h-252z" />
<glyph unicode="]" horiz-adv-x="511" d="M55 -106v221h172v1182h-172v220h401v-1623h-401z" />
<glyph unicode="^" horiz-adv-x="1028" d="M98 833l328 567h176l327 -567h-263l-152 264l-153 -264h-263z" />
<glyph unicode="_" horiz-adv-x="851" d="M-45 -94v220h941v-220h-941z" />
<glyph unicode="`" horiz-adv-x="800" d="M75 1403h392l258 -296h-263z" />
<glyph unicode="a" d="M74 482q0 209 149 356.5t360 147.5q113 0 269 -69h229v-917h-229v35q-156 -57 -269 -57q-211 0 -360 149t-149 355zM307 482q0 -117 81 -198t195 -81q112 0 192 81q62 61 77 135v126q-15 75 -77 136q-80 81 -192 81q-113 0 -194.5 -81.5t-81.5 -198.5z" />
<glyph unicode="b" horiz-adv-x="1179" d="M99 0v1400h229v-481q157 67 269 67q212 0 360 -147.5t148 -356.5q0 -206 -148 -355t-360 -149q-112 0 -269 56v-34h-229zM328 415q15 -71 76 -131q80 -81 193 -81t194 81t81 198t-81 198.5t-194 81.5t-193 -81q-61 -60 -76 -133v-133z" />
<glyph unicode="c" horiz-adv-x="1084" d="M52 483q0 208 149 355.5t360 147.5q213 0 361 -149q30 -29 112 -140l-224 -82q-47 57 -57 68q-80 79 -192 79q-113 0 -194 -81t-81 -198q0 -118 81 -199t194 -81q112 0 192 81q11 11 58 66l223 -82q-82 -111 -112 -140q-148 -150 -361 -150q-211 0 -360 149t-149 356z " />
<glyph unicode="d" d="M86 482q0 209 148 356.5t360 147.5q112 0 269 -67v481h229v-1400h-229v34q-157 -56 -269 -56q-212 0 -360 149t-148 355zM319 482q0 -117 81 -198t194 -81t193 81q61 60 76 131v133q-15 73 -76 133q-80 81 -193 81t-194 -81.5t-81 -198.5z" />
<glyph unicode="e" horiz-adv-x="1091" d="M52 482q0 209 149 356.5t360 147.5q213 0 361 -149q133 -133 133 -391h-772q2 -81 83 -162t195 -81q112 0 193 81q15 15 65 75l217 -76q-64 -107 -114 -155q-148 -150 -361 -150q-211 0 -360 149t-149 355zM339 669h442q-58 93 -220 93q-153 0 -222 -93z" />
<glyph unicode="f" horiz-adv-x="510" d="M22 697v220h78v135q7 116 89 200q89 82 205 82q58 0 192 -47l-74 -211q-97 42 -112 42q-23 0 -48 -22q-21 -21 -23 -53v-126h158v-220h-158v-697h-229v697h-78z" />
<glyph unicode="g" d="M74 482q0 209 149 356.5t360 147.5q113 0 269 -69h229v-777q-5 -234 -110 -339q-149 -148 -360 -148q-213 0 -361 149q-31 30 -112 140l223 82q47 -57 58 -68q79 -79 192 -79q112 0 180 45.5t105 180.5q-100 -125 -313 -125q-211 0 -360 149t-149 355zM307 482 q0 -117 81 -198t195 -81q112 0 192 81q62 61 77 135v126q-15 75 -77 136q-80 81 -192 81q-113 0 -194.5 -81.5t-81.5 -198.5z" />
<glyph unicode="h" horiz-adv-x="941" d="M94 0v1400h229v-470q46 34 111 34q12 0 24 -1q170 0 278 -107.5t111 -265.5v-590h-231v582q0 68 -47.5 114.5t-110.5 46.5t-110 -46q-21 -20 -25 -27v-670h-229z" />
<glyph unicode="i" horiz-adv-x="458" d="M79 1145q0 59 44 101.5t107 42.5q62 0 105.5 -43t43.5 -101q0 -60 -43.5 -102.5t-105.5 -42.5q-63 0 -107 42.5t-44 102.5zM115 0v917h228v-917h-228z" />
<glyph unicode="j" horiz-adv-x="417" d="M-11 33q95 11 95 40v844h229v-842q0 -234 -324 -259v217zM49 1145q0 58 43 101t106 43q62 0 106 -42.5t44 -101.5q0 -60 -44 -102.5t-106 -42.5q-63 0 -106 42.5t-43 102.5z" />
<glyph unicode="k" horiz-adv-x="783" d="M99 0v1244h229v-444l95 117h291l-257 -316l341 -601h-267l-203 333v-333h-229z" />
<glyph unicode="l" horiz-adv-x="449" d="M110 0v1400h229v-1400h-229z" />
<glyph unicode="m" horiz-adv-x="1197" d="M99 0v917h172q60 45 135 45q129 0 192 -64q65 64 193 64q130 0 220 -90q82 -85 87 -203v-669h-230l-1 702q-44 40 -76 40q-31 0 -55 -23.5t-24 -62.5v-656h-228v675q-1 21 -24 44q-24 23 -54 23q-31 0 -55 -24q-20 -20 -23 -48v-670h-229z" />
<glyph unicode="n" horiz-adv-x="959" d="M99 0v917h176q81 46 197 46q170 0 278 -107.5t110 -266.5v-589h-228v582q0 68 -48 114.5t-112 46.5q-63 0 -110 -45q-27 -27 -34 -42v-656h-229z" />
<glyph unicode="o" horiz-adv-x="1161" d="M72 482q0 209 149 356.5t360 147.5q213 0 360.5 -148t147.5 -356q0 -206 -147.5 -355t-360.5 -149q-211 0 -360 149t-149 355zM305 482q0 -117 81 -198t195 -81q112 0 193 81t81 198t-81 198.5t-193 81.5q-113 0 -194.5 -81.5t-81.5 -198.5z" />
<glyph unicode="p" horiz-adv-x="1158" d="M88 -483v1400h229v-34q157 56 269 56q212 0 360 -149t148 -355q0 -209 -148 -356.5t-360 -147.5q-112 0 -269 67v-481h-229zM317 369q15 -73 76 -133q80 -81 193 -81t194 81.5t81 198.5t-81 198t-194 81t-193 -81q-61 -60 -76 -131v-133z" />
<glyph unicode="q" horiz-adv-x="1158" d="M64 435q0 206 148 355t360 149q112 0 269 -56v34h229v-1400h-229v481q-157 -67 -269 -67q-212 0 -360 147.5t-148 356.5zM297 435q0 -117 81 -198.5t194 -81.5t193 81q61 60 76 133v133q-15 71 -76 131q-80 81 -193 81t-194 -81t-81 -198z" />
<glyph unicode="r" horiz-adv-x="569" d="M77 0v917h229v-92q68 108 141 115l120 -212q-136 -27 -180 -72q-77 -76 -81 -186v-470h-229z" />
<glyph unicode="s" horiz-adv-x="743" d="M55 344l228 59q0 -137 24 -160.5t55 -23.5q30 0 54.5 23.5t24.5 61.5q0 34 -25 58q-19 19 -86 62q-96 52 -137 93q-78 77 -78 183t76.5 183t187.5 77q110 0 184 -74q70 -71 70 -163v-53l-213 1q-11 50 -20 59t-21 9q-13 0 -24 -11t-11 -28t13 -29q13 -15 65 -48 q108 -58 159 -109q87 -89 87 -210q0 -126 -88.5 -215.5t-217.5 -89.5t-218 89.5t-89 255.5z" />
<glyph unicode="t" horiz-adv-x="606" d="M32 697v220h156v327h230v-327h156v-220h-156v-697h-230v697h-156z" />
<glyph unicode="u" horiz-adv-x="957" d="M87 364v554h229v-547q0 -68 50 -116q46 -46 117 -46q62 0 110 47t48 115v547h229v-554q-3 -161 -109 -267q-109 -108 -278 -108q-178 0 -285.5 107t-110.5 268z" />
<glyph unicode="v" horiz-adv-x="1024" d="M60 917h254l197 -426l198 426h255l-453 -946z" />
<glyph unicode="w" horiz-adv-x="1250" d="M67 917h244l100 -276l100 276h230l100 -275l100 275h243l-230 -634l-114 -310l-112 310l-102 280l-102 -280l-114 -310l-112 310z" />
<glyph unicode="x" horiz-adv-x="857" d="M12 0l65 111l233 366l-255 440h262l111 -190l109 190h262l-251 -440l298 -477h-266l-152 264l-153 -264h-263z" />
<glyph unicode="y" horiz-adv-x="936" d="M15 917h253l200 -425l201 425h252l-564 -1209h-253l237 509z" />
<glyph unicode="z" horiz-adv-x="911" d="M62 0l396 686h-342v220h731l-397 -686h373v-220h-761z" />
<glyph unicode="{" horiz-adv-x="746" d="M55 580v248q92 -10 96 -10q25 0 52 17q58 32 75 93q11 43 11 92q0 27 -3 53q-12 57 -12 112q0 60 15 114q31 115 140 175q69 39 146 39q22 0 116 -15v-219q-107 13 -115 13q-15 0 -31 -9q-25 -13 -32 -40q-8 -31 -8 -72q0 -20 1 -36q14 -58 14 -121q0 -73 -20 -143 q-42 -149 -75 -167q33 -19 74 -168q21 -70 21 -142q0 -63 -14 -121q-1 -15 -1 -37q0 -41 8 -71q7 -27 32 -40q17 -9 33 -9q6 0 113 13v-222q-96 -13 -116 -13q-77 0 -147 40q-108 61 -139 176q-15 54 -15 114q0 54 12 112q3 26 3 52q0 49 -11 91q-17 62 -75 94 q-27 16 -52 16q-4 0 -96 -9z" />
<glyph unicode="|" horiz-adv-x="339" d="M55 -109v1626h229v-1626h-229z" />
<glyph unicode="}" horiz-adv-x="746" d="M55 -93v222q106 -13 112 -13q17 0 35 10q24 12 30 39q8 30 8 71v38q-13 57 -13 120q0 72 19 142q42 149 75 168q-33 18 -75 167q-19 71 -19 143q0 63 13 121v36q0 41 -8 72q-7 27 -30 40q-17 9 -33 9q-7 0 -114 -13v219q94 15 116 15q76 0 147 -39q107 -60 138 -175 q16 -54 16 -114q0 -55 -12 -112q-4 -26 -4 -53q0 -49 12 -92q18 -61 74 -93q28 -17 53 -17q3 0 96 10v-248q-93 9 -96 9q-25 0 -53 -16q-57 -32 -74 -94q-12 -42 -12 -91q0 -26 4 -52q12 -58 12 -112q0 -60 -16 -114q-30 -115 -138 -176q-71 -40 -147 -40q-21 0 -116 13z " />
<glyph unicode="~" horiz-adv-x="1119" d="M75 565q5 115 25 165q50 119 171 159q32 11 70 11q104 0 259 -88l128 -75q23 -6 32 -6q7 0 7 3v1q25 8 36 34q7 17 7 123l234 -38q-8 -114 -28 -164q-49 -120 -170 -160q-33 -10 -69 -10q-105 0 -259 88q-129 74 -173 74h-4q-15 -5 -26 -33q-8 -17 -8 -122z" />
<glyph unicode="&#xa1;" horiz-adv-x="410" d="M55 772q0 60 43.5 102.5t105.5 42.5q63 0 107 -42.5t44 -102.5q0 -59 -44 -101.5t-107 -42.5q-62 0 -105.5 42.5t-43.5 101.5zM91 -493v1088h230v-1088h-230z" />
<glyph unicode="&#xa2;" horiz-adv-x="1192" d="M176 905q0 173 124 298q96 95 159 106v140h229v-122q96 0 220 -125q24 -25 107 -133l-219 -81q-47 57 -54 64q-45 45 -54 59v-412q9 15 57 62q6 6 51 61l218 -79q-81 -110 -106 -136q-124 -124 -220 -125v-121h-229v139q-64 10 -159 107q-124 124 -124 298zM404 905 q0 -83 55 -140v280q-55 -57 -55 -140z" />
<glyph unicode="&#xa3;" horiz-adv-x="1175" d="M124 98q146 129 167 155q67 79 68 180h-184v221h133q-7 12 -20 37q-94 154 -106 297q-2 18 -2 37q0 133 88 241q102 120 267 136h34q138 0 248 -91q121 -102 135 -257q2 -22 2 -42q0 -63 -50 -182l-213 69q32 92 32 122q0 8 -1 14q-6 68 -56 110q-44 36 -96 36 q-7 0 -14 -1q-65 -5 -104 -53q-38 -46 -38 -102v-19q7 -75 52 -171q72 -113 88 -181h171v-221h-134q-2 -134 -25 -200h8q64 0 124 -14q69 -15 129 -15q52 0 182 33l42 -219q-146 -35 -224 -35t-161 19q-68 15 -116 15q-39 0 -64 -9q-77 -28 -206 -93z" />
<glyph unicode="&#xa4;" horiz-adv-x="1195" d="M132 662l114 115q-45 54 -45 193t45 193l-114 113l161 160l113 -114q49 40 192 40t192 -40l114 113l160 -159l-114 -113q45 -54 45 -193t-45 -193l114 -115l-160 -158l-114 114q-49 -40 -192 -40t-192 41l-113 -115zM431 970q0 -61 33 -104q7 -8 18 -18q10 -11 19 -18 q40 -32 97 -32q56 0 98 32q10 8 20 17q7 7 13 18q36 45 36 105q0 59 -35 105q-8 12 -15 19q-6 6 -18 14q-44 33 -99 33q-56 0 -98 -33q-11 -7 -19 -16q-9 -8 -16 -18q-34 -45 -34 -104z" />
<glyph unicode="&#xa5;" horiz-adv-x="1262" d="M32 1400h261l338 -584l338 584h261l-362 -627h241v-220h-363v-30h359v-221h-359v-302h-230v302h-359v221h359v30h-363v220h241z" />
<glyph unicode="&#xa6;" horiz-adv-x="339" d="M55 -293v785h229v-785h-229zM55 615v785h229v-785h-229z" />
<glyph unicode="&#xa7;" horiz-adv-x="1196" d="M140 876q0 184 112 297q1 151 101 251.5t245 100.5q143 0 245 -100q56 -54 99 -187l-208 -84q-36 100 -57 119q-33 34 -79 34t-80.5 -34.5t-34.5 -85.5t35 -86q44 -43 120 -79q164 -53 280 -168q129 -130 129 -312q0 -185 -112 -298q-1 -151 -101 -251.5t-244 -100.5 t-245 100q-57 55 -98 190l206 80q37 -98 57 -119q33 -32 80 -32t81 34t34 86q0 50 -35 85q-43 43 -120 79q-164 53 -280 169q-130 129 -130 312zM368 870q0 -89 66 -154q67 -67 162 -106q148 -51 204 -105l20 42q0 89 -65 154q-68 68 -164 107q-148 50 -203 104z" />
<glyph unicode="&#xa8;" horiz-adv-x="780" d="M75 1179q0 59 44 101.5t107 42.5q62 0 105.5 -42.5t43.5 -101.5q0 -60 -43.5 -103t-105.5 -43q-63 0 -107 42.5t-44 103.5zM405 1179q0 59 44 101.5t107 42.5q62 0 105.5 -42.5t43.5 -101.5q0 -60 -43.5 -103t-105.5 -43q-63 0 -107 42.5t-44 103.5z" />
<glyph unicode="&#xa9;" horiz-adv-x="1442" d="M0 743q0 295 211 505.5t510 210.5q300 0 510.5 -210.5t210.5 -505.5q0 -296 -210.5 -506.5t-510.5 -210.5q-299 0 -510 210.5t-211 506.5zM230 743q0 -206 145 -350.5t346 -144.5q202 0 346.5 144.5t144.5 350.5q0 205 -144.5 349.5t-346.5 144.5q-201 0 -346 -144.5 t-145 -349.5zM328 743q0 163 117 280t284 117q168 0 286 -118q23 -24 99 -127l-203 -74q-46 52 -53 60q-53 53 -129 53q-75 0 -130 -55.5t-55 -135.5q0 -81 55 -136t130 -55q76 0 133 57q5 5 49 56l202 -74q-75 -104 -99 -127q-117 -119 -285 -119q-167 0 -284 117.5 t-117 280.5z" />
<glyph unicode="&#xaa;" horiz-adv-x="828" d="M74 1097q0 126 98.5 214.5t237.5 88.5q75 0 177 -41h152v-551h-152v21q-102 -34 -177 -34q-140 0 -238 89.5t-98 212.5zM171 354v221h471v-221h-471zM228 1097q0 -70 53.5 -118.5t128.5 -48.5q74 0 127 49q41 36 50 81v75q-9 45 -50 82q-53 49 -127 49t-128 -49t-54 -120 z" />
<glyph unicode="&#xab;" horiz-adv-x="1020" d="M55 450l535 575v-326l-230 -248l230 -247v-328zM424 450l541 573v-324l-231 -248l231 -247v-325z" />
<glyph unicode="&#xac;" horiz-adv-x="1137" d="M135 517v221h867v-520h-231v299h-636z" />
<glyph unicode="&#xad;" horiz-adv-x="697" d="M48 427v220h601v-220h-601z" />
<glyph unicode="&#xae;" horiz-adv-x="1110" d="M0 846q0 227 162 389t393 162t393 -162t162 -389q0 -226 -162 -388.5t-393 -162.5t-393 162.5t-162 388.5zM228 846q0 -139 97 -236q46 -47 50 -49v558h212q89 -12 145 -69q70 -69 70 -164q0 -96 -68 -164l-24 -26l64 -98l12 12q96 97 96 236q0 140 -96 236.5t-231 96.5 t-231 -96.5t-96 -236.5zM554 514h64l-64 101v-101zM554 821h10q23 0 41 18t18 47q0 28 -18 46t-41 18h-10v-129z" />
<glyph unicode="&#xaf;" horiz-adv-x="770" d="M75 1138v220h620v-220h-620z" />
<glyph unicode="&#xb0;" horiz-adv-x="618" d="M55 1146q0 98 73 172.5t180 74.5t181 -74.5t74 -172.5q0 -103 -74 -176t-181 -73t-180 73t-73 176zM207 1145q0 -41 29.5 -70t72.5 -29q42 0 71.5 29t29.5 70q0 40 -29.5 69.5t-71.5 29.5q-43 0 -72.5 -29.5t-29.5 -69.5z" />
<glyph unicode="&#xb1;" horiz-adv-x="1125" d="M85 0v220h363v207h-363v220h363v363h229v-363h363v-220h-363v-207h363v-220h-955z" />
<glyph unicode="&#xb2;" horiz-adv-x="600" d="M5 616q335 511 347.5 533t12.5 30q0 4 -1 11q-3 13 -12 18q-4 3 -9 3t-7 -1q-7 -1 -14 -13q-4 -5 -16 -100l-222 31q13 136 43 184q56 88 157 111q31 7 59 7q73 0 135 -39q87 -55 109 -153q8 -33 8 -64q0 -60 -27 -109t-148 -231h175v-218h-590z" />
<glyph unicode="&#xb3;" horiz-adv-x="582" d="M5 917l203 1q35 -59 48 -73q18 -17 38 -17q21 0 37.5 16t16.5 43q0 28 -19.5 49.5t-65.5 30.5l-115 5v201q25 -1 47 -1q132 0 143 41q3 10 3 18q0 33 -41 44q-8 2 -15 2q-37 0 -39 -70l-169 -3q7 125 45 162q68 67 163 67q96 0 162.5 -66.5t66.5 -156.5q0 -88 -47 -146 q109 -60 109 -177q0 -114 -81.5 -195.5t-200.5 -81.5q-117 0 -201 82q-64 66 -88 225z" />
<glyph unicode="&#xb4;" horiz-adv-x="800" d="M75 1117l258 296h392l-388 -296h-262z" />
<glyph unicode="&#xb6;" horiz-adv-x="1315" d="M77 988q0 199 141 341q119 118 222 132h62v11h736v-220h-115v-1545h-229v1545h-42v-1545h-248v798h-39q-204 0 -346 142t-142 341z" />
<glyph unicode="&#xb7;" horiz-adv-x="375" d="M55 700q0 52 38.5 89.5t94.5 37.5q55 0 93.5 -37.5t38.5 -89.5t-38.5 -89.5t-93.5 -37.5q-56 0 -94.5 37.5t-38.5 89.5z" />
<glyph unicode="&#xb8;" horiz-adv-x="640" d="M54 -279l167 93q33 -19 56 -19q24 0 35 7t11 11t-14 13t-59 14l-110 3v104l112 62h325l-149 -72q74 -8 110 -121q0 -73 -78 -117t-183 -44q-102 0 -223 66z" />
<glyph unicode="&#xb9;" horiz-adv-x="527" d="M5 1234l381 274v-682h135v-216h-500v216h139v298z" />
<glyph unicode="&#xba;" horiz-adv-x="815" d="M72 1097q0 126 98.5 214.5t237.5 88.5q140 0 237.5 -89t97.5 -214q0 -123 -97.5 -212.5t-237.5 -89.5t-238 89.5t-98 212.5zM172 354v221h471v-221h-471zM226 1097q0 -70 53.5 -118.5t128.5 -48.5q74 0 127.5 48.5t53.5 118.5q0 71 -53.5 120t-127.5 49t-128 -49 t-54 -120z" />
<glyph unicode="&#xbb;" horiz-adv-x="1020" d="M55 -121v325l230 247l-230 248v324l542 -573zM430 -124v328l229 247l-229 248v326l535 -575z" />
<glyph unicode="&#xbc;" horiz-adv-x="1729" d="M5 0l1399 1400h320l-1402 -1400h-317zM85 1234l380 274v-682h135v-216h-501v216h139v268zM871 161l553 924v-707h60v-217h-60v-161h-225v161h-328zM1185 374h52v85z" />
<glyph unicode="&#xbd;" horiz-adv-x="1729" d="M5 0l1399 1400h320l-1402 -1400h-317zM85 1234l380 274v-682h135v-216h-501v216h139v268zM967 0q335 511 347.5 533t12.5 30q0 4 -1 11q-3 12 -12 17q-6 4 -9 4q-1 0 -4 -1q-11 -2 -16 -10t-16 -103l-222 32q11 136 43 184q56 86 154 110q32 7 61 7q74 0 136 -41 q87 -54 108 -151q8 -33 8 -64q0 -59 -27.5 -108t-147.5 -233h175v-217h-590z" />
<glyph unicode="&#xbe;" horiz-adv-x="1729" d="M5 0l1399 1400h320l-1402 -1400h-317zM22 924l203 1q35 -59 48 -73q18 -17 38 -17q21 0 37.5 16t16.5 43q0 28 -19.5 49.5t-65.5 30.5l-115 5v201q25 -1 47 -1q132 0 143 41q3 10 3 18q0 33 -41 44q-8 2 -15 2q-37 0 -39 -70l-169 -3q7 125 45 162q68 67 163 67 q96 0 162.5 -66.5t66.5 -156.5q0 -88 -47 -146q109 -60 109 -177q0 -114 -81.5 -195.5t-200.5 -81.5q-117 0 -201 82q-64 66 -88 225zM871 161l553 924v-707h60v-217h-60v-161h-225v161h-328zM1185 374h52v85z" />
<glyph unicode="&#xbf;" horiz-adv-x="893" d="M50 -100q0 115 69 219q57 78 190 184q72 65 91 94q21 28 21 60q0 11 -6 48l227 41q10 -61 10 -91q0 -98 -60 -182q-44 -65 -164 -161q-90 -81 -116 -118q-32 -45 -32 -96q0 -15 3 -31q12 -69 69 -109q45 -30 92 -30q14 0 29 2q63 12 102 67q34 48 34 93q0 10 -22 116 l239 -16q17 -81 17 -107q0 -102 -74 -209q-92 -134 -256 -162q-36 -6 -73 -6q-120 0 -224 70q-132 94 -160 255q-6 35 -6 69zM351 772q0 60 43.5 102.5t105.5 42.5q63 0 107 -42.5t44 -102.5q0 -59 -44 -101.5t-107 -42.5q-62 0 -105.5 42.5t-43.5 101.5z" />
<glyph unicode="&#xc0;" horiz-adv-x="1220" d="M101 0l511 1401l507 -1401h-242l-106 295h-320l-107 -295h-243zM177 1886h392l258 -296h-263zM531 514h159l-80 218z" />
<glyph unicode="&#xc1;" horiz-adv-x="1220" d="M101 0l511 1401l507 -1401h-242l-106 295h-320l-107 -295h-243zM393 1600l258 296h393l-388 -296h-263zM531 514h159l-80 218z" />
<glyph unicode="&#xc2;" horiz-adv-x="1220" d="M101 0l511 1401l507 -1401h-242l-106 295h-320l-107 -295h-243zM203 1582l324 333h151l339 -333h-296l-116 89l-109 -89h-293zM531 514h159l-80 218z" />
<glyph unicode="&#xc3;" horiz-adv-x="1220" d="M101 0l511 1401l507 -1401h-242l-106 295h-320l-107 -295h-243zM244 1595q4 100 19 140q37 100 131 135q25 8 55 8q80 0 197 -73l92 -60q13 -6 18 -6q3 0 3 2v2q15 6 22 24q4 13 4 108l191 -35q-6 -98 -20 -139q-38 -100 -130 -134q-27 -9 -56 -9q-81 0 -197 73 q-92 59 -121 59h-1q-6 -2 -13 -22q-5 -14 -5 -106zM531 514h159l-80 218z" />
<glyph unicode="&#xc4;" horiz-adv-x="1220" d="M101 0l511 1401l507 -1401h-242l-106 295h-320l-107 -295h-243zM295 1662q0 59 44 101.5t107 42.5q62 0 105.5 -42.5t43.5 -101.5q0 -60 -43.5 -103t-105.5 -43q-63 0 -107 42.5t-44 103.5zM531 514h159l-80 218zM626 1662q0 59 43.5 101.5t106.5 42.5q62 0 105.5 -42.5 t43.5 -101.5q0 -60 -43.5 -103t-105.5 -43q-63 0 -106.5 42.5t-43.5 103.5z" />
<glyph unicode="&#xc5;" horiz-adv-x="1220" d="M65 0l519 1424q-68 8 -117 56q-59 58 -59 139q0 80 59 138.5t144 58.5t143.5 -59t58.5 -138q0 -81 -58 -139q-49 -48 -115 -56l516 -1424h-242l-143 395h-320l-143 -395h-243zM532 614h158l-79 218zM576 1619q0 -17 11 -27.5t24 -10.5q12 0 23 10.5t11 27.5t-11 27.5 t-23 10.5q-13 0 -24 -10.5t-11 -27.5z" />
<glyph unicode="&#xc6;" horiz-adv-x="1486" d="M55 0l609 1400h767v-220h-555v-369h555v-222h-555v-369h555v-220h-783v479h-134l-213 -479h-246zM606 699h42v97z" />
<glyph unicode="&#xc7;" horiz-adv-x="1402" d="M74 700q0 294 210 504.5t510 210.5q279 0 546 -243l-170 -150q-192 171 -376 171q-201 0 -345.5 -144t-144.5 -349q0 -206 144.5 -349.5t345.5 -143.5q184 0 376 170l170 -150q-183 -166 -371 -218l-150 -72q75 -8 111 -121q0 -73 -78.5 -117t-182.5 -44q-103 0 -224 66 l167 93q34 -19 57 -19t34.5 7t11.5 11t-14.5 13t-59.5 14l-110 3v104l100 55q-197 42 -347 193q-210 209 -210 505z" />
<glyph unicode="&#xc8;" horiz-adv-x="1008" d="M71 1886h392l258 -296h-263zM112 0v1400h784v-220h-554v-369h554v-222h-554v-369h554v-220h-784z" />
<glyph unicode="&#xc9;" horiz-adv-x="1008" d="M112 0v1400h784v-220h-555v-369h555v-222h-555v-369h555v-220h-784zM287 1600l258 296h393l-388 -296h-263z" />
<glyph unicode="&#xca;" horiz-adv-x="1008" d="M97 1582l324 333h151l340 -333h-297l-116 89l-109 -89h-293zM112 0v1400h784v-220h-554v-369h554v-222h-554v-369h554v-220h-784z" />
<glyph unicode="&#xcb;" horiz-adv-x="1008" d="M112 0v1400h784v-220h-555v-369h555v-222h-555v-369h555v-220h-784zM189 1662q0 59 44 101.5t107 42.5q62 0 105.5 -42.5t43.5 -101.5q0 -60 -43.5 -103t-105.5 -43q-63 0 -107 42.5t-44 103.5zM520 1662q0 59 43.5 101.5t106.5 42.5q62 0 105.5 -42.5t43.5 -101.5 q0 -60 -43.5 -103t-105.5 -43q-63 0 -106.5 42.5t-43.5 103.5z" />
<glyph unicode="&#xcc;" horiz-adv-x="473" d="M-197 1886h392l258 -296h-263zM122 0v1400h229v-1400h-229z" />
<glyph unicode="&#xcd;" horiz-adv-x="473" d="M20 1600l258 296h392l-388 -296h-262zM122 0v1400h229v-1400h-229z" />
<glyph unicode="&#xce;" horiz-adv-x="473" d="M-171 1582l324 333h151l340 -333h-297l-116 89l-109 -89h-293zM122 0v1400h229v-1400h-229z" />
<glyph unicode="&#xcf;" horiz-adv-x="473" d="M-78 1662q0 59 44 101.5t107 42.5q62 0 105.5 -42.5t43.5 -101.5q0 -60 -43.5 -103t-105.5 -43q-63 0 -107 42.5t-44 103.5zM122 0v1400h230v-1400h-230zM252 1662q0 59 44 101.5t107 42.5q62 0 105.5 -42.5t43.5 -101.5q0 -60 -43.5 -103t-105.5 -43q-63 0 -107 42.5 t-44 103.5z" />
<glyph unicode="&#xd0;" horiz-adv-x="1267" d="M20 589v222h113v589h311q344 -2 536 -195q210 -211 210 -505q0 -296 -210 -505q-192 -193 -536 -195h-311v589h-113zM363 222h80q237 0 369 128q144 144 144 350q0 205 -144 351q-132 126 -369 126h-80v-366h436v-222h-436v-367z" />
<glyph unicode="&#xd1;" horiz-adv-x="1213" d="M109 0v1400h136l629 -882v882h230v-1426h-121l-645 904v-878h-229zM241 1595q4 100 19 140q37 100 131 135q25 8 55 8q80 0 197 -73l92 -60q13 -6 18 -6q3 0 3 2v2q15 6 22 24q4 13 4 108l191 -35q-6 -98 -20 -139q-38 -100 -130 -134q-27 -9 -56 -9q-81 0 -197 73 q-92 59 -121 59h-1q-6 -2 -13 -22q-5 -14 -5 -106z" />
<glyph unicode="&#xd2;" horiz-adv-x="1566" d="M62 702q0 295 211 505.5t510 210.5q300 0 510.5 -210.5t210.5 -505.5q0 -296 -210.5 -506.5t-510.5 -210.5q-299 0 -510 210.5t-211 506.5zM292 702q0 -206 145 -350.5t346 -144.5q202 0 346.5 144.5t144.5 350.5q0 205 -144.5 349.5t-346.5 144.5q-201 0 -346 -144.5 t-145 -349.5zM350 1886h392l258 -296h-264z" />
<glyph unicode="&#xd3;" horiz-adv-x="1566" d="M62 702q0 295 211 505.5t510 210.5q300 0 510.5 -210.5t210.5 -505.5q0 -296 -210.5 -506.5t-510.5 -210.5q-299 0 -510 210.5t-211 506.5zM292 702q0 -206 145 -350.5t346 -144.5q202 0 346.5 144.5t144.5 350.5q0 205 -144.5 349.5t-346.5 144.5q-201 0 -346 -144.5 t-145 -349.5zM566 1600l258 296h392l-388 -296h-262z" />
<glyph unicode="&#xd4;" horiz-adv-x="1566" d="M62 702q0 295 211 505.5t510 210.5q300 0 510.5 -210.5t210.5 -505.5q0 -296 -210.5 -506.5t-510.5 -210.5q-299 0 -510 210.5t-211 506.5zM292 702q0 -206 145 -350.5t346 -144.5q202 0 346.5 144.5t144.5 350.5q0 205 -144.5 349.5t-346.5 144.5q-201 0 -346 -144.5 t-145 -349.5zM376 1582l324 333h151l339 -333h-296l-116 89l-110 -89h-292z" />
<glyph unicode="&#xd5;" horiz-adv-x="1566" d="M62 702q0 295 211 505.5t510 210.5q300 0 510.5 -210.5t210.5 -505.5q0 -296 -210.5 -506.5t-510.5 -210.5q-299 0 -510 210.5t-211 506.5zM292 702q0 -206 145 -350.5t346 -144.5q202 0 346.5 144.5t144.5 350.5q0 205 -144.5 349.5t-346.5 144.5q-201 0 -346 -144.5 t-145 -349.5zM417 1595q4 100 19 140q37 100 131 135q25 8 55 8q80 0 197 -73l92 -60q13 -6 18 -6q3 0 3 2v2q15 6 22 24q4 13 4 108l191 -35q-6 -98 -20 -139q-38 -100 -130 -134q-27 -9 -56 -9q-81 0 -197 73q-92 59 -121 59h-1q-6 -2 -13 -22q-5 -14 -5 -106z" />
<glyph unicode="&#xd6;" horiz-adv-x="1566" d="M62 702q0 295 211 505.5t510 210.5q300 0 510.5 -210.5t210.5 -505.5q0 -296 -210.5 -506.5t-510.5 -210.5q-299 0 -510 210.5t-211 506.5zM292 702q0 -206 145 -350.5t346 -144.5q202 0 346.5 144.5t144.5 350.5q0 205 -144.5 349.5t-346.5 144.5q-201 0 -346 -144.5 t-145 -349.5zM468 1662q0 59 44 101.5t107 42.5q62 0 105.5 -42.5t43.5 -101.5q0 -60 -43.5 -103t-105.5 -43q-63 0 -107 42.5t-44 103.5zM798 1662q0 59 44 101.5t107 42.5q62 0 105.5 -42.5t43.5 -101.5q0 -60 -43.5 -103t-105.5 -43q-63 0 -107 42.5t-44 103.5z" />
<glyph unicode="&#xd7;" horiz-adv-x="1209" d="M188 280l257 258l-257 256l161 158l255 -255l256 255l160 -158l-257 -256l257 -258l-160 -157l-256 255l-255 -255z" />
<glyph unicode="&#xd8;" horiz-adv-x="1638" d="M98 702q0 295 211 505.5t510 210.5q145 0 198 -21l69 146l206 -94l-69 -149q29 -15 108 -93q209 -210 209 -505q0 -296 -210.5 -506.5t-510.5 -210.5q-145 0 -198 22l-69 -149l-206 97l69 148q-29 16 -107 94q-210 209 -210 505zM328 702q0 -206 146 -352l33 -49l415 893 q-6 2 -103 2q-201 0 -346 -144.5t-145 -349.5zM715 209q7 -2 104 -2q202 0 346.5 144.5t144.5 350.5q0 205 -146 352l-32 49z" />
<glyph unicode="&#xd9;" horiz-adv-x="1199" d="M112 472v928h229v-928q0 -109 77 -185.5t182 -76.5t181.5 76.5t76.5 185.5v928h229v-978q-23 -172 -140 -290q-144 -143 -347 -143q-204 0 -346 142.5t-142 340.5zM166 1886h392l258 -296h-263z" />
<glyph unicode="&#xda;" horiz-adv-x="1199" d="M112 472v928h229v-928q0 -109 77 -185.5t182 -76.5t181.5 76.5t76.5 185.5v928h229v-978q-23 -172 -140 -290q-144 -143 -347 -143q-204 0 -346 142.5t-142 340.5zM383 1600l258 296h392l-388 -296h-262z" />
<glyph unicode="&#xdb;" horiz-adv-x="1199" d="M112 472v928h229v-928q0 -109 77 -185.5t182 -76.5t181.5 76.5t76.5 185.5v928h229v-978q-23 -172 -140 -290q-144 -143 -347 -143q-204 0 -346 142.5t-142 340.5zM192 1582l325 333h150l340 -333h-296l-117 89l-109 -89h-293z" />
<glyph unicode="&#xdc;" horiz-adv-x="1199" d="M112 472v928h229v-928q0 -109 77 -185.5t182 -76.5t181.5 76.5t76.5 185.5v928h229v-978q-23 -172 -140 -290q-144 -143 -347 -143q-204 0 -346 142.5t-142 340.5zM285 1662q0 59 44 101.5t107 42.5q62 0 105 -42.5t43 -101.5q0 -60 -43 -103t-105 -43q-63 0 -107 42.5 t-44 103.5zM615 1662q0 59 44 101.5t107 42.5q62 0 105.5 -42.5t43.5 -101.5q0 -60 -43.5 -103t-105.5 -43q-63 0 -107 42.5t-44 103.5z" />
<glyph unicode="&#xdd;" horiz-adv-x="1262" d="M32 1400h261l338 -584l338 584h261l-484 -838v-562h-230v562zM414 1600l258 296h392l-388 -296h-262z" />
<glyph unicode="&#xde;" horiz-adv-x="1015" d="M98 0v1400h229v-216h184q176 -24 294 -142q143 -142 143 -341q0 -200 -142.5 -341.5t-344.5 -141.5h-134v-218h-229zM327 438h134q104 0 180.5 76.5t76.5 186.5t-76 186t-181 76h-134v-525z" />
<glyph unicode="&#xdf;" horiz-adv-x="1043" d="M112 0v1137q16 81 66 141q90 110 233 128q22 2 43 2q120 0 216 -77q110 -89 124 -227q3 -24 3 -49q0 -105 -51 -206q233 -143 242 -375q3 -25 3 -51q0 -152 -99 -275q-117 -145 -304 -166q-27 -3 -55 -3q-120 0 -192 45v-24h-229zM341 296l2 2q120 -95 191 -95q13 0 27 2 q90 10 147 80q49 61 49 138q0 14 -1 30q-10 94 -84 159t-170 74t-108 100q-3 9 -3 23q0 74 80 115q29 14 66 64q26 35 26 76q0 5 -1 15q-6 51 -44 82q-29 23 -65 23q-7 0 -15 -1q-46 -4 -76 -41q-16 -21 -21 -36v-810z" />
<glyph unicode="&#xe0;" d="M74 482q0 209 149 356.5t360 147.5q113 0 269 -69h229v-917h-229v35q-156 -57 -269 -57q-211 0 -360 149t-149 355zM144 1403h392l258 -296h-263zM307 482q0 -117 81 -198t195 -81q112 0 192 81q62 61 77 135v126q-15 75 -77 136q-80 81 -192 81q-113 0 -194.5 -81.5 t-81.5 -198.5z" />
<glyph unicode="&#xe1;" d="M74 482q0 209 149 356.5t360 147.5q113 0 269 -69h229v-917h-229v35q-156 -57 -269 -57q-211 0 -360 149t-149 355zM307 482q0 -117 81 -198t195 -81q112 0 192 81q62 61 77 135v126q-15 75 -77 136q-80 81 -192 81q-113 0 -194.5 -81.5t-81.5 -198.5zM361 1117l258 296 h392l-388 -296h-262z" />
<glyph unicode="&#xe2;" d="M74 482q0 209 149 356.5t360 147.5q113 0 269 -69h229v-917h-229v35q-156 -57 -269 -57q-211 0 -360 149t-149 355zM170 1099l325 333h150l340 -333h-296l-117 89l-109 -89h-293zM307 482q0 -117 81 -198t195 -81q112 0 192 81q62 61 77 135v126q-15 75 -77 136 q-80 81 -192 81q-113 0 -194.5 -81.5t-81.5 -198.5z" />
<glyph unicode="&#xe3;" d="M74 482q0 209 149 356.5t360 147.5q113 0 269 -69h229v-917h-229v35q-156 -57 -269 -57q-211 0 -360 149t-149 355zM212 1112q4 100 19 140q37 100 131 135q25 8 55 8q80 0 197 -73l92 -60q13 -6 18 -6q3 0 3 2v2q15 6 22 24q4 13 4 108l191 -35q-6 -98 -20 -139 q-38 -100 -130 -134q-27 -9 -56 -9q-81 0 -197 73q-92 59 -121 59h-1q-6 -2 -13 -22q-5 -14 -5 -106zM307 482q0 -117 81 -198t195 -81q112 0 192 81q62 61 77 135v126q-15 75 -77 136q-80 81 -192 81q-113 0 -194.5 -81.5t-81.5 -198.5z" />
<glyph unicode="&#xe4;" d="M74 482q0 209 149 356.5t360 147.5q113 0 269 -69h229v-917h-229v35q-156 -57 -269 -57q-211 0 -360 149t-149 355zM263 1179q0 59 43.5 101.5t106.5 42.5t106 -42.5t43 -101.5q0 -60 -43 -103t-106 -43t-106.5 42.5t-43.5 103.5zM307 482q0 -117 81 -198t195 -81 q112 0 192 81q62 61 77 135v126q-15 75 -77 136q-80 81 -192 81q-113 0 -194.5 -81.5t-81.5 -198.5zM593 1179q0 59 44 101.5t107 42.5q62 0 105 -42.5t43 -101.5q0 -60 -43 -103t-105 -43q-63 0 -107 42.5t-44 103.5z" />
<glyph unicode="&#xe5;" d="M74 482q0 209 149 357q105 103 240 134q-15 10 -29 24q-59 58 -59 139q0 80 59 138.5t144 58.5t143.5 -58.5t58.5 -138.5q0 -81 -58 -139q-10 -9 -19 -17q111 -12 149 -50v-13h229v-917h-229v35q-56 -57 -269 -57q-211 0 -360 149t-149 355zM307 482q0 -117 81 -198 t195 -81q112 0 192 81q62 61 77 135v126q-15 75 -77 136q-80 81 -192 81q-113 0 -194.5 -81.5t-81.5 -198.5zM543 1136q0 -17 11 -27.5t24 -10.5t23.5 10.5t10.5 27.5t-10.5 27.5t-23.5 10.5t-24 -10.5t-11 -27.5z" />
<glyph unicode="&#xe6;" horiz-adv-x="1726" d="M74 482q0 209 149 356.5t360 147.5q213 0 269 -56v35l189 -1q70 22 154 22q213 0 362 -149q133 -133 133 -391h-609v-220q42 -23 114 -23q113 0 193 81q15 15 65 75l217 -76q-64 -107 -113 -155q-149 -150 -362 -150q-84 0 -114 10v12h-229v35q-56 -57 -269 -57 q-211 0 -360 149t-149 355zM307 482q0 -117 81 -198t195 -81q112 0 192 81q62 61 77 135v126q-15 75 -77 136q-80 81 -192 81q-113 0 -194.5 -81.5t-81.5 -198.5zM1081 669h344q-117 93 -230 93q-72 0 -114 -23v-70z" />
<glyph unicode="&#xe7;" horiz-adv-x="1084" d="M52 483q0 208 149 355.5t360 147.5q213 0 361 -149q30 -29 112 -140l-224 -82q-47 57 -57 68q-80 79 -192 79q-113 0 -194 -81t-81 -198q0 -118 81 -199t194 -81q112 0 192 81q11 11 58 66l223 -82q-82 -111 -112 -140q-62 -63 -135 -99h17l-149 -72q75 -8 111 -121 q0 -73 -78.5 -117t-183.5 -44q-102 0 -223 66l167 93q34 -19 56 -19q24 0 35.5 7t11.5 11t-14.5 13t-59.5 14l-110 3v104l53 29q-122 34 -219 131q-149 149 -149 356z" />
<glyph unicode="&#xe8;" horiz-adv-x="1091" d="M52 482q0 209 149 356.5t360 147.5q213 0 361 -149q133 -133 133 -391h-772q2 -81 83 -162t195 -81q112 0 193 81q15 15 65 75l217 -76q-64 -107 -114 -155q-148 -150 -361 -150q-211 0 -360 149t-149 355zM120 1403h392l258 -296h-263zM339 669h442q-58 93 -220 93 q-153 0 -222 -93z" />
<glyph unicode="&#xe9;" horiz-adv-x="1091" d="M52 482q0 209 149 356.5t360 147.5q213 0 361 -149q133 -133 133 -391h-772q2 -81 83 -162t195 -81q112 0 193 81q15 15 65 75l217 -76q-64 -107 -114 -155q-148 -150 -361 -150q-211 0 -360 149t-149 355zM337 1117l258 296h392l-388 -296h-262zM339 669h442 q-58 93 -220 93q-153 0 -222 -93z" />
<glyph unicode="&#xea;" horiz-adv-x="1091" d="M52 482q0 209 149 356.5t360 147.5q213 0 361 -149q133 -133 133 -391h-772q2 -81 83 -162t195 -81q112 0 193 81q15 15 65 75l217 -76q-64 -107 -114 -155q-148 -150 -361 -150q-211 0 -360 149t-149 355zM146 1099l325 333h150l340 -333h-296l-117 89l-109 -89h-293z M339 669h442q-58 93 -220 93q-153 0 -222 -93z" />
<glyph unicode="&#xeb;" horiz-adv-x="1091" d="M52 482q0 209 149 356.5t360 147.5q213 0 361 -149q133 -133 133 -391h-772q2 -81 83 -162t195 -81q112 0 193 81q15 15 65 75l217 -76q-64 -107 -114 -155q-148 -150 -361 -150q-211 0 -360 149t-149 355zM239 1179q0 59 43.5 101.5t106.5 42.5t106 -42.5t43 -101.5 q0 -60 -43 -103t-106 -43t-106.5 42.5t-43.5 103.5zM339 669h442q-58 93 -220 93q-153 0 -222 -93zM569 1179q0 59 44 101.5t107 42.5q62 0 105 -42.5t43 -101.5q0 -60 -43 -103t-105 -43q-63 0 -107 42.5t-44 103.5z" />
<glyph unicode="&#xec;" horiz-adv-x="458" d="M-205 1403h392l258 -296h-263zM114 0v917h229v-917h-229z" />
<glyph unicode="&#xed;" horiz-adv-x="458" d="M12 1117l258 296h392l-388 -296h-262zM114 0v917h229v-917h-229z" />
<glyph unicode="&#xee;" horiz-adv-x="458" d="M-179 1099l324 333h151l340 -333h-297l-116 89l-109 -89h-293zM114 0v917h229v-917h-229z" />
<glyph unicode="&#xef;" horiz-adv-x="458" d="M-86 1179q0 59 44 101.5t107 42.5q62 0 105.5 -42.5t43.5 -101.5q0 -60 -43.5 -103t-105.5 -43q-63 0 -107 42.5t-44 103.5zM115 0v917h228v-917h-228zM244 1179q0 59 44 101.5t107 42.5q62 0 105.5 -42.5t43.5 -101.5q0 -60 -43.5 -103t-105.5 -43q-63 0 -107 42.5 t-44 103.5z" />
<glyph unicode="&#xf1;" horiz-adv-x="959" d="M99 0v917h176q81 46 197 46q170 0 278 -107.5t110 -266.5v-589h-228v582q0 68 -48 114.5t-112 46.5q-63 0 -110 -45q-27 -27 -34 -42v-656h-229zM114 1112q4 100 19 140q37 100 131 135q25 8 55 8q80 0 197 -73l92 -60q13 -6 18 -6q3 0 3 2v2q15 6 22 24q4 13 4 108 l191 -35q-6 -98 -20 -139q-38 -100 -130 -134q-27 -9 -56 -9q-81 0 -197 73q-92 59 -121 59h-1q-6 -2 -13 -22q-5 -14 -5 -106z" />
<glyph unicode="&#xf2;" horiz-adv-x="1161" d="M72 482q0 209 149 356.5t360 147.5q213 0 360.5 -148t147.5 -356q0 -206 -147.5 -355t-360.5 -149q-211 0 -360 149t-149 355zM147 1403h392l258 -296h-263zM305 482q0 -117 81 -198t195 -81q112 0 193 81t81 198t-81 198.5t-193 81.5q-113 0 -194.5 -81.5t-81.5 -198.5z " />
<glyph unicode="&#xf3;" horiz-adv-x="1161" d="M72 482q0 209 149 356.5t360 147.5q213 0 360.5 -148t147.5 -356q0 -206 -147.5 -355t-360.5 -149q-211 0 -360 149t-149 355zM305 482q0 -117 81 -198t195 -81q112 0 193 81t81 198t-81 198.5t-193 81.5q-113 0 -194.5 -81.5t-81.5 -198.5zM364 1117l257 296h393 l-388 -296h-262z" />
<glyph unicode="&#xf4;" horiz-adv-x="1161" d="M72 482q0 209 149 356.5t360 147.5q213 0 360.5 -148t147.5 -356q0 -206 -147.5 -355t-360.5 -149q-211 0 -360 149t-149 355zM173 1099l324 333h151l340 -333h-297l-116 89l-109 -89h-293zM305 482q0 -117 81 -198t195 -81q112 0 193 81t81 198t-81 198.5t-193 81.5 q-113 0 -194.5 -81.5t-81.5 -198.5z" />
<glyph unicode="&#xf5;" horiz-adv-x="1161" d="M72 482q0 209 149 356.5t360 147.5q213 0 360.5 -148t147.5 -356q0 -206 -147.5 -355t-360.5 -149q-211 0 -360 149t-149 355zM214 1112q4 100 19 140q37 100 131 135q25 8 55 8q80 0 197 -73l92 -60q13 -6 18 -6q3 0 3 2v2q15 6 22 24q4 13 4 108l191 -35 q-6 -98 -20 -139q-38 -100 -130 -134q-27 -9 -56 -9q-81 0 -197 73q-92 59 -121 59h-1q-6 -2 -13 -22q-5 -14 -5 -106zM305 482q0 -117 81 -198t195 -81q112 0 193 81t81 198t-81 198.5t-193 81.5q-113 0 -194.5 -81.5t-81.5 -198.5z" />
<glyph unicode="&#xf6;" horiz-adv-x="1161" d="M72 482q0 209 149 356.5t360 147.5q213 0 360.5 -148t147.5 -356q0 -206 -147.5 -355t-360.5 -149q-211 0 -360 149t-149 355zM265 1179q0 59 44 101.5t107 42.5q62 0 105.5 -42.5t43.5 -101.5q0 -60 -43.5 -103t-105.5 -43q-63 0 -107 42.5t-44 103.5zM305 482 q0 -117 81 -198t195 -81q112 0 193 81t81 198t-81 198.5t-193 81.5q-113 0 -194.5 -81.5t-81.5 -198.5zM596 1179q0 59 43.5 101.5t106.5 42.5t106 -42.5t43 -101.5q0 -60 -43 -103t-106 -43t-106.5 42.5t-43.5 103.5z" />
<glyph unicode="&#xf7;" horiz-adv-x="1125" d="M85 427v220h955v-220h-955zM413 265q0 59 43.5 102t106.5 43q62 0 106 -43t44 -102q0 -60 -44 -102.5t-106 -42.5q-63 0 -106.5 42.5t-43.5 102.5zM413 810q0 60 43.5 103t106.5 43q62 0 106 -43t44 -103q0 -58 -44 -101t-106 -43q-63 0 -106.5 43t-43.5 101z" />
<glyph unicode="&#xf8;" horiz-adv-x="1127" d="M55 483q0 208 149 356t360 148q120 0 152 -15l96 169l201 -107l-104 -179q163 -165 163 -372q0 -206 -147.5 -355t-360.5 -149q-120 0 -152 15l-96 -165l-203 96l106 187q-164 165 -164 371zM288 483q0 -118 48 -169l268 466q-153 -18 -234.5 -99t-81.5 -198zM518 208 q153 0 231 74q89 84 89 201q0 118 -46 168z" />
<glyph unicode="&#xf9;" horiz-adv-x="957" d="M45 1403h392l258 -296h-263zM87 364v554h229v-547q0 -68 49 -116q47 -46 117 -46q63 0 111 47t48 115v547h229v-554q-3 -161 -109 -267q-109 -108 -278 -108q-178 0 -285.5 107t-110.5 268z" />
<glyph unicode="&#xfa;" horiz-adv-x="957" d="M87 364v554h229v-547q0 -68 50 -116q46 -46 117 -46q62 0 110 47t48 115v547h229v-554q-3 -161 -109 -267q-109 -108 -278 -108q-178 0 -285.5 107t-110.5 268zM262 1117l258 296h392l-388 -296h-262z" />
<glyph unicode="&#xfb;" horiz-adv-x="957" d="M71 1099l324 333h151l340 -333h-297l-116 89l-109 -89h-293zM87 364v554h229v-547q0 -68 49 -116q47 -46 117 -46q63 0 111 47t48 115v547h229v-554q-3 -161 -109 -267q-109 -108 -278 -108q-178 0 -285.5 107t-110.5 268z" />
<glyph unicode="&#xfc;" horiz-adv-x="957" d="M87 364v554h229v-547q0 -68 50 -116q46 -46 117 -46q62 0 110 47t48 115v547h229v-554q-3 -161 -109 -267q-109 -108 -278 -108q-178 0 -285.5 107t-110.5 268zM164 1179q0 59 44 101.5t107 42.5q62 0 105 -42.5t43 -101.5q0 -60 -43 -103t-105 -43q-63 0 -107 42.5 t-44 103.5zM494 1179q0 59 44 101.5t107 42.5q62 0 105.5 -42.5t43.5 -101.5q0 -60 -43.5 -103t-105.5 -43q-63 0 -107 42.5t-44 103.5z" />
<glyph unicode="&#xfd;" horiz-adv-x="936" d="M15 917h253l200 -425l201 425h252l-564 -1209h-253l237 509zM251 1117l258 296h392l-388 -296h-262z" />
<glyph unicode="&#xfe;" horiz-adv-x="1158" d="M95 -483v1883h234v-512q57 51 260 51q212 0 360 -148.5t148 -355.5q0 -208 -148 -356t-360 -148q-200 0 -268 79v-493h-226zM329 338q18 -54 67 -102q80 -81 193 -81t194 81.5t81 198.5t-81 198t-194 81t-193 -81q-49 -48 -67 -100v-195z" />
<glyph unicode="&#xff;" horiz-adv-x="936" d="M15 917h253l200 -425l201 425h252l-564 -1209h-253l237 509zM153 1179q0 59 44 101.5t107 42.5q62 0 105.5 -42.5t43.5 -101.5q0 -60 -43.5 -103t-105.5 -43q-63 0 -107 42.5t-44 103.5zM483 1179q0 59 44 101.5t107 42.5q62 0 105.5 -42.5t43.5 -101.5q0 -60 -43.5 -103 t-105.5 -43q-63 0 -107 42.5t-44 103.5z" />
<glyph unicode="&#x152;" horiz-adv-x="1961" d="M88 702q0 295 211 505.5t510 210.5q116 0 210 -18h854v-220h-504q149 -171 157 -369h347v-222h-347q-10 -197 -158 -369h505v-220h-856q-94 -15 -208 -15q-299 0 -510 210.5t-211 506.5zM318 702q0 -206 145 -350.5t346 -144.5q94 0 173 28q30 12 60 29q59 33 114 88 q132 132 143 317q1 15 1 33q0 15 -1 29q-10 187 -145 323q-53 52 -111 83q-31 18 -61 30q-80 29 -173 29q-201 0 -346 -144.5t-145 -349.5z" />
<glyph unicode="&#x153;" horiz-adv-x="1790" d="M66 482q0 209 149 356.5t360 147.5q213 0 366 -150q95 150 307 150t360 -147q133 -134 141 -393l-664 1q-3 -95 -37 -157q87 -87 200 -87q112 0 193 81q15 15 65 75l216 -77q-64 -106 -113 -154q-149 -150 -361 -150t-374 158q-86 -158 -299 -158q-211 0 -360 149 t-149 355zM299 482q0 -117 81 -198t195 -81q112 0 193 81t81 198t-81 198.5t-193 81.5q-113 0 -194.5 -81.5t-81.5 -198.5zM1082 669h383q-57 93 -217 93q-108 0 -166 -93z" />
<glyph unicode="&#x178;" horiz-adv-x="1262" d="M32 1400h261l338 -584l338 584h261l-484 -838v-562h-230v562zM316 1662q0 59 44 101.5t107 42.5q62 0 105.5 -42.5t43.5 -101.5q0 -60 -43.5 -103t-105.5 -43q-63 0 -107 42.5t-44 103.5zM646 1662q0 59 44 101.5t107 42.5q62 0 105.5 -42.5t43.5 -101.5 q0 -60 -43.5 -103t-105.5 -43q-63 0 -107 42.5t-44 103.5z" />
<glyph unicode="&#x2c6;" horiz-adv-x="965" d="M75 1099l324 333h151l340 -333h-297l-116 89l-109 -89h-293z" />
<glyph unicode="&#x2dc;" horiz-adv-x="881" d="M75 1112q4 100 19 140q37 100 131 135q25 8 55 8q80 0 197 -73l92 -60q13 -6 18 -6q3 0 3 2v2q15 6 22 24q4 13 4 108l191 -35q-6 -98 -20 -139q-38 -100 -130 -134q-27 -9 -56 -9q-81 0 -197 73q-92 59 -121 59h-1q-6 -2 -13 -22q-5 -14 -5 -106z" />
<glyph unicode="&#x2000;" horiz-adv-x="957" />
<glyph unicode="&#x2001;" horiz-adv-x="1915" />
<glyph unicode="&#x2002;" horiz-adv-x="957" />
<glyph unicode="&#x2003;" horiz-adv-x="1915" />
<glyph unicode="&#x2004;" horiz-adv-x="638" />
<glyph unicode="&#x2005;" horiz-adv-x="478" />
<glyph unicode="&#x2006;" horiz-adv-x="319" />
<glyph unicode="&#x2007;" horiz-adv-x="319" />
<glyph unicode="&#x2008;" horiz-adv-x="239" />
<glyph unicode="&#x2009;" horiz-adv-x="383" />
<glyph unicode="&#x200a;" horiz-adv-x="106" />
<glyph unicode="&#x2010;" horiz-adv-x="697" d="M48 427v220h601v-220h-601z" />
<glyph unicode="&#x2011;" horiz-adv-x="697" d="M48 427v220h601v-220h-601z" />
<glyph unicode="&#x2012;" horiz-adv-x="697" d="M48 427v220h601v-220h-601z" />
<glyph unicode="&#x2013;" horiz-adv-x="761" d="M0 427v220h761v-220h-761z" />
<glyph unicode="&#x2014;" horiz-adv-x="1268" d="M0 427v220h1268v-220h-1268z" />
<glyph unicode="&#x2018;" horiz-adv-x="407" d="M55 968q0 5 1 10q3 67 116 420h171l-88 -293q30 -10 54 -34q43 -43 43 -101q0 -60 -43.5 -103t-105.5 -43q-63 0 -107 43q-41 40 -41 101z" />
<glyph unicode="&#x2019;" horiz-adv-x="407" d="M55 1252q0 60 43.5 103t105.5 43q63 0 107 -43q41 -40 41 -101q0 -5 -1 -10q-3 -67 -116 -420h-171l88 293q-30 10 -54 34q-43 43 -43 101z" />
<glyph unicode="&#x201a;" horiz-adv-x="407" d="M55 98q0 60 43.5 103t105.5 43q63 0 107 -43q41 -40 41 -101q0 -5 -1 -10q-3 -67 -116 -420h-171l88 293q-30 10 -54 34q-43 43 -43 101z" />
<glyph unicode="&#x201c;" horiz-adv-x="767" d="M55 968q0 5 1 10q3 67 116 420h171l-88 -293q30 -10 54 -34q43 -43 43 -101q0 -60 -43.5 -103t-105.5 -43q-63 0 -107 43q-41 40 -41 101zM415 968q0 5 1 10q3 67 116 420h171l-88 -293q30 -10 54 -34q43 -43 43 -101q0 -60 -43.5 -103t-105.5 -43q-63 0 -107 43 q-41 40 -41 101z" />
<glyph unicode="&#x201d;" horiz-adv-x="767" d="M55 1252q0 60 43.5 103t105.5 43q63 0 107 -43q41 -40 41 -101q0 -5 -1 -10q-3 -67 -116 -420h-171l88 293q-30 10 -54 34q-43 43 -43 101zM415 1252q0 60 43.5 103t105.5 43q63 0 107 -43q41 -40 41 -101q0 -5 -1 -10q-3 -67 -116 -420h-171l88 293q-30 10 -54 34 q-43 43 -43 101z" />
<glyph unicode="&#x201e;" horiz-adv-x="767" d="M55 139q0 60 43.5 103t105.5 43q63 0 107 -43q41 -40 41 -101q0 -5 -1 -10q-3 -67 -116 -420h-171l88 293q-30 10 -54 34q-43 43 -43 101zM415 139q0 60 43.5 103t105.5 43q63 0 107 -43q41 -40 41 -101q0 -5 -1 -10q-3 -67 -116 -420h-171l88 293q-30 10 -54 34 q-43 43 -43 101z" />
<glyph unicode="&#x2022;" horiz-adv-x="2623" d="M148 -53q18 9 25 13.5t7 7.5v159q0 20 -30 29q78 37 111 60q16 -2 20 -46v-2q12 5 23 10l102 38q7 -38 16 -68t18 -87q1 -11 1 -21q0 -48 -32 -98q-40 -62 -113 -126q46 85 46 158q0 20 -3 39q-16 89 -27 112q-31 -23 -31 -47v-103q0 -3 3.5 -11t31.5 -15q-28 -9 -76 -38 q-15 -9 -29 -9q-32 0 -63 45zM206 965v25q198 54 260 129q65 93 154 93h7q117 0 117 -69q0 -21 -18 -42v-7q19 -111 99 -111l-62 266q21 0 74 80l223 267h482q25 -20 223 -292q49 -53 49 -79v-13l-44 -161l13 -37l-25 -37h7q104 43 104 117v7q-17 21 -17 42q0 69 116 69h7 q92 0 186 -123q60 -50 228 -99v-25q-18 0 -18 -12l5 -8v-5q-5 -25 -37 -25h-12l-191 -12q-28 25 -94 25l-54 25l-7 -20q23 -74 106 -74l17 -5q69 5 69 17v7l-12 18v7l25 -12l30 5h99l37 7l19 -7v-12q0 -36 -180 -62l-111 7v-20q100 -30 167 -30h38v-7q-46 -62 -144 -62h-24 q-62 0 -142 32v-7q0 -32 142 -79q0 -25 -67 -32q-39 0 -168 56q0 -30 61 -81l-17 -12l-119 37v-5l20 -50l-25 -7q-33 0 -118 111l-55 -272v-5h-656q-33 0 -74 260q-65 -83 -106 -94l-25 7l20 55h-7q-76 -37 -117 -37l-12 19q62 37 62 74h-8q-113 -56 -166 -56q-62 7 -62 32 q142 47 142 79v7h-5q-64 -32 -137 -32h-24q-97 0 -143 62v7h37q67 0 168 30v20l-124 -7q-168 30 -168 62v12h12v7l45 -7h99l24 -5l30 12v-7l-12 -18v-7q0 -12 62 -17q131 10 131 91l-8 8q-45 -25 -123 -32q0 -9 -25 -18l-191 12h-12q-32 0 -37 25l5 18zM392 970l12 -12h80 l19 19v13h-12v5l-99 -18v-7zM416 -140q1 59 61 85q-7 20 -7 23v159q0 20 -30 29q77 37 111 60q16 -2 19 -46v-195q2 -15 12 -15t29 17v150q0 20 -30 29q78 37 111 60q16 -2 20 -46v-159q0 -45 -70 -77t-111 -32h-4q-38 0 -47 -29q-2 -7 -2 -13q0 -20 23 -29q8 -3 18 -3 q25 0 60 20q30 18 56 18q16 0 29 -7q16 -7 27 -29q4 -8 4 -17q0 -12 -8 -23q-14 -14 -29 -14q-7 0 -15 3q-23 14 -37 46q-2 3 -5 3t-9 -6q-47 -47 -91 -47q-15 0 -29 5q-56 20 -56 78v2zM478 760h80q80 0 111 69v42h-5l-99 -42q0 -13 -69 -37l-18 -20v-12zM627 1163l18 -37 l61 24v18h-79v-5zM632 921l7 -6h25l12 13l-19 42h-12zM639 705l6 -7v-5q99 35 99 111v5h-6q-56 -37 -99 -99v-5zM701 854h18l12 12v12q0 9 -25 18l-5 -5v-37zM721 -53q15 9 23 13.5t8 7.5v159q0 20 -30 29q76 37 112 60q16 -2 19 -46v-2q11 5 23 10l76 38q2 -7 25 -38 q7 -7 10 -14q16 7 34 14l76 38q0 -7 23 -36.5t23 -45.5v-159q0 -3 3 -11q4 -7 29 -14v177q0 20 -30 29q77 37 111 60q12 -27 25 -46q10 3 21 8l101 38q7 -38 26 -101q9 -29 9 -54q0 -27 -11 -49q-24 -53 -84 -84q-39 -20 -68 -27v-51q0 -6 4 -13.5t32 -13.5q-28 -10 -75 -39 q-14 -9 -29 -9q-32 0 -64 47q18 7 25 12t7 7v107q-28 -10 -73 -38q-10 -6 -21 -6q-22 0 -39 32v128q-3 26 -30 61q-9 -12 -12 -33v-117q0 -3 3.5 -11t31.5 -15q-28 -9 -76 -39q-11 -6 -21 -6q-23 0 -39 32v128q-3 26 -30 61q-16 -12 -16 -33v-117q0 -3 3.5 -11t16.5 -15 q-13 -9 -61 -38q-15 -9 -29 -9q-32 0 -62 45zM751 673h5l56 20v67h-7q-54 -28 -54 -87zM768 829l20 -20h5l12 13v7l-17 17h-7l-13 -12v-5zM843 673l7 -5v-7q24 9 37 32v24l-13 13l-31 -32v-25zM843 785l7 -6h5l12 13l-12 12zM855 1279h19q170 202 211 267q-20 0 -20 18h-5 q-99 -99 -99 -136q-106 -117 -106 -149zM867 1193h7l6 -5h7q0 30 79 116l143 198l-12 12l-57 -74q-153 -191 -173 -247zM904 1039q60 -401 174 -433l-167 451h-7v-18zM917 1188l198 -569h358q82 224 168 537l-62 99q-143 221 -143 242h-297l-222 -304v-5zM1060 445l25 -7 l129 62v7q0 13 -75 25q-30 0 -79 -81v-6zM1109 850v5q57 135 57 181q-37 79 -37 111q30 161 161 161h3q157 0 157 -161q0 -30 -44 -124v-7l62 -166h-359zM1127 581l12 -12h273l61 5v7h-346zM1279 60q0 -19 12 -41q13 -21 32 -21q25 4 27 32q-4 28 -18 51q-12 21 -23 44 q-30 -23 -30 -65zM1382 500l136 -62l17 7v6q-32 60 -74 81q-79 -12 -79 -25v-7zM1422 -53q18 9 25 13.5t7 7.5v339q0 20 -30 31q78 37 110 46q17 -25 38 -50q-17 -4 -17 -19v-142q7 4 16 7l100 37q7 -37 16 -67q11 -30 19 -70q2 -8 2 -17q0 -36 -24 -88q-30 -65 -108 -123 q37 71 37 131q0 23 -5 44q-20 77 -30 100q-16 -10 -23 -23v-129q0 -3 3.5 -11t31.5 -15q-28 -9 -76 -38q-15 -9 -29 -9q-32 0 -63 45zM1456 1509l161 -254q49 -75 79 -75l25 20l-228 339zM1523 1539q171 -226 205 -252v5q-154 231 -205 267v-20zM1535 643h7q87 0 149 396 q-6 43 -20 43q-37 -50 -136 -409v-30zM1696 717q0 -28 50 -56l7 7v30l-45 37q-12 0 -12 -18zM1718 26q0 32 13 61q25 54 115 91l103 38q5 -38 25 -101q9 -29 9 -54q0 -27 -11 -49q-25 -53 -85 -84q-56 -29 -91 -29h-7q-36 4 -59 64q-12 33 -12 63zM1728 792l12 -13l13 13 l-20 12l-5 -7v-5zM1783 693l56 -20h6v7q0 50 -55 80h-7v-67zM1790 822l12 -13h5l20 20v5l-13 12h-7l-17 -17v-7zM1823 60q0 -19 13 -41q12 -21 33 -21q25 4 25 32q-4 28 -18 51q-12 21 -23 44q-30 -23 -30 -65zM1852 804q0 -76 99 -111l5 5v12q-43 62 -99 99h-5v-5z M1864 866l12 -12h18v30l-18 19l-12 -12v-25zM1889 1150l62 -24l17 37v5h-79v-18zM1913 933l18 -18h20l12 13l-12 42h-20q-18 -5 -18 -37zM1926 854q0 -80 104 -94h87v12q-23 27 -87 50q0 17 -74 32l-25 17h-5v-17zM1979 -53q17 9 24.5 13.5t7.5 7.5v159q0 20 -30 29 q77 37 111 60q16 -2 19 -46v-2q13 5 25 10l101 38q7 -38 16 -68q10 -30 18 -87q2 -10 2 -19q0 -49 -33 -100q-39 -62 -113 -126q46 85 46 158q0 20 -3 39q-16 89 -27 112q-30 -23 -30 -47h-2v-103q0 -3 3.5 -11t32.5 -15q-27 -9 -75 -38q-15 -9 -29 -9q-32 0 -64 45z M2092 977l19 -19h80l12 12v7l-92 18l-19 -5v-13zM2278 117q0 16 8 33q7 14 25 23q5 2 9 4v58q0 57 33 99q34 42 114 48q-46 -50 -46 -140v-76q21 9 38 20q8 -18 8 -35q0 -18 -8 -34q-7 -15 -24 -23q-7 -4 -14 -4v-78q2 -27 23 -27q12 0 31 10q-23 -48 -67 -81 q-15 -10 -32 -10q-38 0 -88 43q18 9 25 13.5t7 7.5v131q-16 -7 -34 -18q-8 18 -8 36z" />
<glyph unicode="&#x2026;" horiz-adv-x="2032" d="M98 135q0 58 44 101t107 43q62 0 105.5 -43t43.5 -101q0 -60 -43.5 -103t-105.5 -43q-63 0 -107 43t-44 103zM702 135q0 58 44 101t107 43q62 0 105 -43t43 -101q0 -60 -43 -103t-105 -43q-63 0 -107 43t-44 103zM1306 135q0 58 43.5 101t106.5 43q62 0 106 -43t44 -101 q0 -60 -44 -103t-106 -43q-63 0 -106.5 43t-43.5 103z" />
<glyph unicode="&#x202f;" horiz-adv-x="383" />
<glyph unicode="&#x2039;" horiz-adv-x="645" d="M55 450l535 575v-326l-230 -248l230 -247v-328z" />
<glyph unicode="&#x203a;" horiz-adv-x="645" d="M55 -124v328l231 247l-231 248v326l535 -575z" />
<glyph unicode="&#x205f;" horiz-adv-x="478" />
<glyph unicode="&#x20ac;" horiz-adv-x="1134" d="M-42 441l39 200h141v37h-134l39 201h104q22 248 131 361q146 150 355 150q211 0 394 -190l-151 -158q-139 143 -243 143q-105 0 -181 -78q-59 -60 -75 -228h294l-39 -201h-263v-37h256l-39 -200h-200q17 -119 66 -169q76 -79 181 -79q104 0 181 79q51 53 85 170h234 q-49 -203 -144 -303q-144 -151 -356 -151q-209 0 -355 151q-96 99 -124 302h-196z" />
<glyph unicode="&#x2122;" horiz-adv-x="1019" d="M32 1312v88h384l286 -422l285 430v-568h-104v236l-153 -236h-58l-153 235v-235h-103v472h-138v-472h-103v472h-143z" />
<glyph unicode="&#x25fc;" horiz-adv-x="915" d="M0 0v915h915v-915h-915z" />
</font>
</defs>
</svg>
